<svg width="678" height="692" viewBox="0 0 678 692" fill="none" xmlns="http://www.w3.org/2000/svg">
<g style="mix-blend-mode:overlay">
<path d="M530.645 536.645C634.432 432.88 634.432 264.645 530.645 160.88C426.858 57.1155 258.586 57.1155 154.799 160.88C51.0117 264.645 51.0117 432.88 154.799 536.645C258.586 640.409 426.858 640.409 530.645 536.645Z" stroke="white" stroke-width="2.23" stroke-linecap="round" stroke-linejoin="round"/>
<path d="M544.792 550.788C656.392 439.212 656.392 258.312 544.792 146.737C433.192 35.1609 252.252 35.1609 140.652 146.737C29.0523 258.312 29.0523 439.212 140.652 550.788C252.252 662.364 433.192 662.364 544.792 550.788Z" stroke="white" stroke-width="2.23" stroke-linecap="round" stroke-linejoin="round"/>
<path d="M466.438 472.451C534.764 404.14 534.764 293.385 466.438 225.073C398.112 156.762 287.333 156.762 219.006 225.073C150.68 293.385 150.68 404.14 219.006 472.451C287.333 540.763 398.112 540.763 466.438 472.451Z" stroke="white" stroke-width="2.23" stroke-linecap="round" stroke-linejoin="round"/>
<path d="M448.709 454.726C507.244 396.204 507.244 301.321 448.709 242.798C390.174 184.276 295.27 184.276 236.735 242.798C178.2 301.321 178.2 396.204 236.735 454.726C295.27 513.249 390.174 513.249 448.709 454.726Z" stroke="white" stroke-width="2.23" stroke-linecap="round" stroke-linejoin="round"/>
<path d="M412.699 417.826C451.158 379.376 451.158 317.035 412.699 278.584C374.239 240.133 311.885 240.133 273.426 278.584C234.966 317.035 234.966 379.376 273.426 417.826C311.885 456.277 374.239 456.277 412.699 417.826Z" stroke="white" stroke-width="2.23" stroke-linecap="round" stroke-linejoin="round"/>
<path d="M256.779 395.689H429.343L343.061 249.75L256.779 393.852" stroke="white" stroke-width="2.23" stroke-linecap="round" stroke-linejoin="round"/>
<path d="M429.343 301.261H256.779L343.061 447.2L429.343 303.098" stroke="white" stroke-width="2.23" stroke-linecap="round" stroke-linejoin="round"/>
<path d="M342.731 83.0635V65.4149" stroke="white" stroke-width="2.23" stroke-linecap="round" stroke-linejoin="round"/>
<path d="M342.731 83.0635V65.4149" stroke="white" stroke-width="2.23" stroke-linecap="round" stroke-linejoin="round"/>
<path d="M273.887 92.2035L269.323 75.1575" stroke="white" stroke-width="2.23" stroke-linecap="round" stroke-linejoin="round"/>
<path d="M209.749 118.834L200.923 103.568" stroke="white" stroke-width="2.23" stroke-linecap="round" stroke-linejoin="round"/>
<path d="M154.696 161.162L142.225 148.694" stroke="white" stroke-width="2.23" stroke-linecap="round" stroke-linejoin="round"/>
<path d="M112.474 216.304L97.1892 207.479" stroke="white" stroke-width="2.23" stroke-linecap="round" stroke-linejoin="round"/>
<path d="M85.9663 280.485L68.9309 275.908" stroke="white" stroke-width="2.23" stroke-linecap="round" stroke-linejoin="round"/>
<path d="M76.9821 349.329H59.3296" stroke="white" stroke-width="2.23" stroke-linecap="round" stroke-linejoin="round"/>
<path d="M86.1099 418.159L69.0745 422.736" stroke="white" stroke-width="2.23" stroke-linecap="round" stroke-linejoin="round"/>
<path d="M112.761 482.282L97.4763 491.106" stroke="white" stroke-width="2.23" stroke-linecap="round" stroke-linejoin="round"/>
<path d="M155.098 537.323L142.626 549.806" stroke="white" stroke-width="2.23" stroke-linecap="round" stroke-linejoin="round"/>
<path d="M210.251 579.536L201.425 594.817" stroke="white" stroke-width="2.23" stroke-linecap="round" stroke-linejoin="round"/>
<path d="M274.446 606.038L269.868 623.084" stroke="white" stroke-width="2.23" stroke-linecap="round" stroke-linejoin="round"/>
<path d="M343.305 615.035V632.669" stroke="white" stroke-width="2.23" stroke-linecap="round" stroke-linejoin="round"/>
<path d="M412.15 605.895L416.714 622.941" stroke="white" stroke-width="2.23" stroke-linecap="round" stroke-linejoin="round"/>
<path d="M476.288 579.249L485.114 594.531" stroke="white" stroke-width="2.23" stroke-linecap="round" stroke-linejoin="round"/>
<path d="M531.341 536.921L543.826 549.404" stroke="white" stroke-width="2.23" stroke-linecap="round" stroke-linejoin="round"/>
<path d="M573.563 481.794L588.848 490.619" stroke="white" stroke-width="2.23" stroke-linecap="round" stroke-linejoin="round"/>
<path d="M600.071 417.613L617.12 422.176" stroke="white" stroke-width="2.23" stroke-linecap="round" stroke-linejoin="round"/>
<path d="M609.069 348.755H626.707" stroke="white" stroke-width="2.23" stroke-linecap="round" stroke-linejoin="round"/>
<path d="M599.927 279.925L616.962 275.362" stroke="white" stroke-width="2.23" stroke-linecap="round" stroke-linejoin="round"/>
<path d="M573.276 215.802L588.561 206.992" stroke="white" stroke-width="2.23" stroke-linecap="round" stroke-linejoin="round"/>
<path d="M530.939 160.761L543.41 148.292" stroke="white" stroke-width="2.23" stroke-linecap="round" stroke-linejoin="round"/>
<path d="M475.8 118.547L484.612 103.281" stroke="white" stroke-width="2.23" stroke-linecap="round" stroke-linejoin="round"/>
<path d="M411.605 92.0457L416.169 75.014" stroke="white" stroke-width="2.23" stroke-linecap="round" stroke-linejoin="round"/>
<path d="M273.958 92.1174L412.15 605.895" stroke="white" stroke-width="2.23" stroke-linecap="round" stroke-linejoin="round"/>
<path d="M411.519 92.1174L269.868 623.084" stroke="white" stroke-width="2.23" stroke-linecap="round" stroke-linejoin="round"/>
<path d="M530.652 160.875L155.098 537.323" stroke="white" stroke-width="2.23" stroke-linecap="round" stroke-linejoin="round"/>
<path d="M154.811 160.875L530.652 536.634" stroke="white" stroke-width="2.23" stroke-linecap="round" stroke-linejoin="round"/>
<path d="M86.0381 279.997L600.071 417.613" stroke="white" stroke-width="2.23" stroke-linecap="round" stroke-linejoin="round"/>
<path d="M86.0381 417.527L599.439 279.997" stroke="white" stroke-width="2.23" stroke-linecap="round" stroke-linejoin="round"/>
<path d="M343.061 479.369C415.649 479.369 474.494 420.538 474.494 347.966C474.494 275.393 415.649 216.562 343.061 216.562C270.473 216.562 211.629 275.393 211.629 347.966C211.629 420.538 270.473 479.369 343.061 479.369Z" stroke="white" stroke-width="2.23" stroke-linecap="round" stroke-linejoin="round"/>
</g>
</svg>
